# xmcd
#
# Track frame offsets:
# 150
# 12872
# 28627
# 42580
# 57460
# 71787
# 86280
# 101990
# 112420
# 124490
# 136325
# 154980
# 170335
# 183767
# 197755
# 211297
# 225447
# 239772
# 252075
# 265222
#
# Disc length: 3709 seconds
#
# Revision: 0
# Processed by: cddbd v1.5.1PL0 Copyright (c) Steve Scherf et al.
# Submitted via: Audion 3.0.2 (http://www.panic.com/audion/)
#
DISCID=280e7b14
DTITLE=Reijo Taipale - Suuret sävelet cd 2
DYEAR=1900
DGENRE=
TTITLE0=Onnenmaa
TTITLE1=Tähdet Silmissäsi
TTITLE2=Tähdet Meren Yllä
TTITLE3=Kangastus
TTITLE4=Monika
TTITLE5=Sateen Tango
TTITLE6=Tuliuudelma
TTITLE7=Sinitaivas
TTITLE8=Tuo suru jonka sain
TTITLE9=Kellot Soi
TTITLE10=Rakkautta Ei Se Ollutkaan
TTITLE11=Capri
TTITLE12=Eron Hetki On Kaunis
TTITLE13=Täysikuu
TTITLE14=Muista Minua
TTITLE15=Odotin Pitkän Illan
TTITLE16=Kohtalon Leikkiä
TTITLE17=Tulivuori
TTITLE18=Yksin Taas
TTITLE19=Tangoserenadi
EXTD=
EXTT0=
EXTT1=
EXTT2=
EXTT3=
EXTT4=
EXTT5=
EXTT6=
EXTT7=
EXTT8=
EXTT9=
EXTT10=
EXTT11=
EXTT12=
EXTT13=
EXTT14=
EXTT15=
EXTT16=
EXTT17=
EXTT18=
EXTT19=
PLAYORDER=
